<svg id="visual" viewBox="0 0 1920 540" width="1920" height="540" xmlns="http://www.w3.org/2000/svg" xmlns:xlink="http://www.w3.org/1999/xlink" version="1.1"><path d="M0 510L26.7 506C53.3 502 106.7 494 160 496.7C213.3 499.3 266.7 512.7 320 515.8C373.3 519 426.7 512 480 509.5C533.3 507 586.7 509 640 507.2C693.3 505.3 746.7 499.7 800 501.3C853.3 503 906.7 512 960 513.5C1013.3 515 1066.7 509 1120 505.3C1173.3 501.7 1226.7 500.3 1280 502C1333.3 503.7 1386.7 508.3 1440 507.8C1493.3 507.3 1546.7 501.7 1600 504C1653.3 506.3 1706.7 516.7 1760 518.7C1813.3 520.7 1866.7 514.3 1893.3 511.2L1920 508L1920 541L1893.3 541C1866.7 541 1813.3 541 1760 541C1706.7 541 1653.3 541 1600 541C1546.7 541 1493.3 541 1440 541C1386.7 541 1333.3 541 1280 541C1226.7 541 1173.3 541 1120 541C1066.7 541 1013.3 541 960 541C906.7 541 853.3 541 800 541C746.7 541 693.3 541 640 541C586.7 541 533.3 541 480 541C426.7 541 373.3 541 320 541C266.7 541 213.3 541 160 541C106.7 541 53.3 541 26.7 541L0 541Z" fill="#0066ff" stroke-linecap="round" stroke-linejoin="miter"></path></svg>