<svg id="visual" viewBox="0 0 1920 540" width="1920" height="540" xmlns="http://www.w3.org/2000/svg" xmlns:xlink="http://www.w3.org/1999/xlink" version="1.1"><path d="M0 395L26.7 375C53.3 355 106.7 315 160 328C213.3 341 266.7 407 320 422.7C373.3 438.3 426.7 403.7 480 391.5C533.3 379.3 586.7 389.7 640 380.8C693.3 372 746.7 344 800 352.5C853.3 361 906.7 406 960 412.8C1013.3 419.7 1066.7 388.3 1120 369.8C1173.3 351.3 1226.7 345.7 1280 354.5C1333.3 363.3 1386.7 386.7 1440 384C1493.3 381.3 1546.7 352.7 1600 364.5C1653.3 376.3 1706.7 428.7 1760 438.8C1813.3 449 1866.7 417 1893.3 401L1920 385L1920 541L1893.3 541C1866.7 541 1813.3 541 1760 541C1706.7 541 1653.3 541 1600 541C1546.7 541 1493.3 541 1440 541C1386.7 541 1333.3 541 1280 541C1226.7 541 1173.3 541 1120 541C1066.7 541 1013.3 541 960 541C906.7 541 853.3 541 800 541C746.7 541 693.3 541 640 541C586.7 541 533.3 541 480 541C426.7 541 373.3 541 320 541C266.7 541 213.3 541 160 541C106.7 541 53.3 541 26.7 541L0 541Z" fill="#a5c9ff" stroke-linecap="round" stroke-linejoin="miter"></path></svg>