<svg id="visual" viewBox="0 0 1920 540" width="1920" height="540" xmlns="http://www.w3.org/2000/svg" xmlns:xlink="http://www.w3.org/1999/xlink" version="1.1"><path d="M0 452L26.7 440.2C53.3 428.3 106.7 404.7 160 412.5C213.3 420.3 266.7 459.7 320 469C373.3 478.3 426.7 457.7 480 450.5C533.3 443.3 586.7 449.7 640 444.3C693.3 439 746.7 422 800 427C853.3 432 906.7 459 960 463.2C1013.3 467.3 1066.7 448.7 1120 437.7C1173.3 426.7 1226.7 423.3 1280 428.7C1333.3 434 1386.7 448 1440 446.3C1493.3 444.7 1546.7 427.3 1600 434.3C1653.3 441.3 1706.7 472.7 1760 478.8C1813.3 485 1866.7 466 1893.3 456.5L1920 447L1920 541L1893.3 541C1866.7 541 1813.3 541 1760 541C1706.7 541 1653.3 541 1600 541C1546.7 541 1493.3 541 1440 541C1386.7 541 1333.3 541 1280 541C1226.7 541 1173.3 541 1120 541C1066.7 541 1013.3 541 960 541C906.7 541 853.3 541 800 541C746.7 541 693.3 541 640 541C586.7 541 533.3 541 480 541C426.7 541 373.3 541 320 541C266.7 541 213.3 541 160 541C106.7 541 53.3 541 26.7 541L0 541Z" fill="#68a5ff" stroke-linecap="round" stroke-linejoin="miter"></path></svg>